<svg width="190" height="71" viewBox="0 0 190 71" fill="none" xmlns="http://www.w3.org/2000/svg">
<path d="M1 30.8794C1 14.8631 13.9837 1.87939 30 1.87939H160C176.016 1.87939 189 14.8631 189 30.8794V40.8794C189 56.8957 176.016 69.8794 160 69.8794H30C13.9837 69.8794 1 56.8957 1 40.8794V30.8794Z" fill="black" stroke="#D2D2D2" stroke-width="2"/>
<path d="M41.6448 36.2911C41.6589 35.1956 41.9496 34.1215 42.4898 33.1687C43.0301 32.2159 43.8024 31.4153 44.7348 30.8416C44.1425 29.9948 43.361 29.2979 42.4525 28.8063C41.5441 28.3147 40.5336 28.0419 39.5014 28.0096C37.2995 27.7783 35.1648 29.3284 34.0427 29.3284C32.899 29.3284 31.1714 28.0326 29.3111 28.0709C28.1078 28.1098 26.9351 28.46 25.9072 29.0875C24.8793 29.7149 24.0314 30.5982 23.4459 31.6512C20.91 36.046 22.8016 42.5049 25.2308 46.0573C26.4462 47.7968 27.8667 49.7399 29.7253 49.671C31.5441 49.5955 32.2234 48.5101 34.4188 48.5101C36.5939 48.5101 37.2312 49.671 39.1275 49.6272C41.0792 49.5955 42.3088 47.88 43.4816 46.124C44.3548 44.8845 45.0268 43.5146 45.4726 42.065C44.3388 41.585 43.3712 40.7815 42.6905 39.7548C42.0098 38.728 41.6461 37.5234 41.6448 36.2911Z" fill="white"/>
<path d="M38.0627 25.6733C39.1268 24.3946 39.6511 22.7511 39.5241 21.0918C37.8984 21.2628 36.3967 22.0405 35.3182 23.2701C34.7909 23.8708 34.387 24.5696 34.1297 25.3266C33.8724 26.0836 33.7666 26.884 33.8185 27.6819C34.6317 27.6903 35.4361 27.5139 36.1713 27.1659C36.9065 26.818 37.5532 26.3076 38.0627 25.6733Z" fill="white"/>
<path d="M64.6357 45.2673H58.429L56.9385 49.6726H54.3096L60.1885 33.374H62.9198L68.7987 49.6726H66.1249L64.6357 45.2673ZM59.0718 43.2344H63.9917L61.5663 36.0849H61.4985L59.0718 43.2344Z" fill="white"/>
<path d="M81.4949 43.7318C81.4949 47.4244 79.5203 49.7969 76.5405 49.7969C75.7857 49.8365 75.035 49.6624 74.3744 49.2947C73.7138 48.9271 73.17 48.3806 72.8052 47.7179H72.7488V53.6037H70.312V37.7896H72.6708V39.7661H72.7156C73.0971 39.1066 73.6501 38.5629 74.3157 38.193C74.9814 37.8231 75.7347 37.6407 76.4957 37.6653C79.5087 37.6653 81.4949 40.0493 81.4949 43.7318ZM78.9901 43.7318C78.9901 41.3259 77.748 39.7443 75.8529 39.7443C73.991 39.7443 72.7386 41.3593 72.7386 43.7318C72.7386 46.126 73.991 47.7295 75.8529 47.7295C77.748 47.7295 78.9901 46.1594 78.9901 43.7318Z" fill="white"/>
<path d="M94.5617 43.7318C94.5617 47.4245 92.5872 49.7969 89.6074 49.7969C88.8526 49.8365 88.1019 49.6624 87.4413 49.2947C86.7807 48.9271 86.2369 48.3806 85.8721 47.7179H85.8157V53.6037H83.3789V37.7896H85.7376V39.7661H85.7824C86.164 39.1066 86.7169 38.5629 87.3826 38.193C88.0482 37.8231 88.8016 37.6407 89.5625 37.6653C92.5757 37.6653 94.5617 40.0493 94.5617 43.7318ZM92.057 43.7318C92.057 41.3259 90.8149 39.7443 88.9198 39.7443C87.0579 39.7443 85.8055 41.3593 85.8055 43.7318C85.8055 46.126 87.0579 47.7295 88.9198 47.7295C90.8149 47.7295 92.0571 46.1594 92.0571 43.7318H92.057Z" fill="white"/>
<path d="M103.197 45.1314C103.378 46.7477 104.946 47.8089 107.09 47.8089C109.144 47.8089 110.622 46.7476 110.622 45.2903C110.622 44.0252 109.73 43.2677 107.62 42.7486L105.51 42.2397C102.52 41.5168 101.132 40.1172 101.132 37.8459C101.132 35.0338 103.58 33.1022 107.057 33.1022C110.497 33.1022 112.856 35.0338 112.936 37.8459H110.476C110.328 36.2194 108.985 35.2376 107.022 35.2376C105.059 35.2376 103.716 36.231 103.716 37.6768C103.716 38.829 104.574 39.5071 106.672 40.0261L108.466 40.4671C111.807 41.2579 113.195 42.6012 113.195 44.9852C113.195 48.0344 110.769 49.9442 106.909 49.9442C103.298 49.9442 100.86 48.0793 100.703 45.1313L103.197 45.1314Z" fill="white"/>
<path d="M118.455 34.9775V37.7896H120.712V39.7212H118.455V46.2722C118.455 47.2899 118.907 47.7641 119.899 47.7641C120.167 47.7594 120.435 47.7406 120.701 47.7077V49.6277C120.255 49.7112 119.801 49.7489 119.347 49.7405C116.944 49.7405 116.006 48.8369 116.006 46.5323V39.7212H114.28V37.7896H116.006V34.9775H118.455Z" fill="white"/>
<path d="M122.02 43.7318C122.02 39.9929 124.22 37.6435 127.65 37.6435C131.093 37.6435 133.282 39.9929 133.282 43.7318C133.282 47.4808 131.104 49.82 127.65 49.82C124.198 49.82 122.02 47.4808 122.02 43.7318ZM130.799 43.7318C130.799 41.167 129.625 39.6533 127.65 39.6533C125.676 39.6533 124.503 41.1785 124.503 43.7318C124.503 46.3068 125.676 47.809 127.65 47.809C129.625 47.809 130.799 46.3068 130.799 43.7318H130.799Z" fill="white"/>
<path d="M135.291 37.7896H137.615V39.8122H137.672C137.829 39.1805 138.199 38.6222 138.719 38.2313C139.239 37.8403 139.877 37.6404 140.527 37.6653C140.808 37.6643 141.088 37.6948 141.362 37.7563V40.0378C141.008 39.9293 140.638 39.8795 140.267 39.8904C139.913 39.876 139.56 39.9385 139.233 40.0735C138.905 40.2085 138.61 40.4129 138.369 40.6727C138.128 40.9324 137.946 41.2413 137.835 41.5782C137.724 41.9151 137.688 42.2719 137.728 42.6243V49.6726H135.291L135.291 37.7896Z" fill="white"/>
<path d="M152.597 46.1824C152.269 48.3396 150.171 49.82 147.485 49.82C144.032 49.82 141.888 47.5039 141.888 43.7881C141.888 40.0609 144.043 37.6435 147.383 37.6435C150.667 37.6435 152.733 39.9019 152.733 43.5049V44.3406H144.348V44.488C144.309 44.9253 144.364 45.3659 144.509 45.7804C144.653 46.1949 144.884 46.574 145.186 46.8923C145.488 47.2107 145.854 47.461 146.26 47.6268C146.667 47.7926 147.103 47.87 147.542 47.8538C148.118 47.9078 148.695 47.7743 149.189 47.4732C149.683 47.172 150.067 46.7193 150.283 46.1824L152.597 46.1824ZM144.36 42.6359H150.295C150.317 42.2426 150.257 41.8491 150.12 41.4801C149.983 41.111 149.771 40.7743 149.497 40.4911C149.224 40.2079 148.895 39.9843 148.531 39.8344C148.167 39.6845 147.776 39.6115 147.383 39.6199C146.986 39.6176 146.593 39.6939 146.226 39.8445C145.858 39.9951 145.525 40.217 145.243 40.4974C144.962 40.7778 144.74 41.1111 144.588 41.4781C144.436 41.8452 144.359 42.2387 144.36 42.6359V42.6359Z" fill="white"/>
<path d="M58.766 21.1059C59.2769 21.0692 59.7896 21.1465 60.267 21.3321C60.7445 21.5177 61.1748 21.8071 61.527 22.1794C61.8792 22.5516 62.1444 22.9975 62.3036 23.4848C62.4628 23.9721 62.512 24.4887 62.4476 24.9973C62.4476 27.4992 61.0966 28.9374 58.766 28.9374H55.9399V21.1059H58.766ZM57.1551 27.8299H58.6303C58.9954 27.8517 59.3607 27.7918 59.6997 27.6545C60.0387 27.5172 60.3429 27.3059 60.59 27.0361C60.8372 26.7663 61.0212 26.4448 61.1285 26.0948C61.2358 25.7449 61.2639 25.3754 61.2106 25.0132C61.26 24.6525 61.2291 24.2853 61.1201 23.9379C61.0111 23.5906 60.8267 23.2716 60.5801 23.004C60.3335 22.7363 60.0309 22.5266 59.6938 22.3898C59.3567 22.2529 58.9935 22.1925 58.6303 22.2126H57.1551V27.8299Z" fill="white"/>
<path d="M63.8203 25.9797C63.7832 25.5913 63.8276 25.1994 63.9506 24.8292C64.0737 24.459 64.2727 24.1186 64.5348 23.8299C64.797 23.5411 65.1166 23.3105 65.473 23.1526C65.8295 22.9947 66.215 22.9132 66.6048 22.9132C66.9946 22.9132 67.3801 22.9947 67.7366 23.1526C68.093 23.3105 68.4126 23.5411 68.6748 23.8299C68.9369 24.1186 69.1359 24.459 69.259 24.8292C69.382 25.1994 69.4264 25.5913 69.3893 25.9797C69.4271 26.3685 69.3833 26.7609 69.2605 27.1317C69.1378 27.5025 68.9389 27.8435 68.6767 28.1328C68.4145 28.4221 68.0946 28.6533 67.7378 28.8115C67.381 28.9697 66.9951 29.0514 66.6048 29.0514C66.2145 29.0514 65.8286 28.9697 65.4718 28.8115C65.1149 28.6533 64.7951 28.4221 64.5329 28.1328C64.2707 27.8435 64.0718 27.5025 63.9491 27.1317C63.8263 26.7609 63.7825 26.3685 63.8203 25.9797ZM68.1907 25.9797C68.1907 24.6986 67.6158 23.9494 66.6067 23.9494C65.5938 23.9494 65.024 24.6986 65.024 25.9797C65.024 27.2711 65.5939 28.0145 66.6067 28.0145C67.6158 28.0144 68.1907 27.2659 68.1907 25.9797H68.1907Z" fill="white"/>
<path d="M76.7919 28.9373H75.5831L74.3627 24.5845H74.2705L73.0553 28.9373H71.858L70.2305 23.0272H71.4124L72.4701 27.5369H72.5572L73.7711 23.0272H74.889L76.1029 27.5369H76.1951L77.2477 23.0272H78.413L76.7919 28.9373Z" fill="white"/>
<path d="M79.7817 23.0272H80.9035V23.9661H80.9906C81.1383 23.6289 81.3874 23.3462 81.7033 23.1574C82.0191 22.9687 82.3859 22.8833 82.7526 22.9131C83.0398 22.8915 83.3283 22.9348 83.5966 23.04C83.8649 23.1451 84.1061 23.3093 84.3024 23.5204C84.4986 23.7315 84.6449 23.9841 84.7304 24.2595C84.8159 24.5349 84.8384 24.826 84.7963 25.1113V28.9372H83.631V25.4042C83.631 24.4544 83.2187 23.9821 82.3569 23.9821C82.1618 23.973 81.9671 24.0062 81.7861 24.0795C81.605 24.1528 81.442 24.2644 81.3081 24.4066C81.1742 24.5489 81.0726 24.7184 81.0102 24.9037C80.9479 25.0889 80.9263 25.2854 80.947 25.4798V28.9373H79.7817L79.7817 23.0272Z" fill="white"/>
<path d="M86.6533 20.72H87.8186V28.9373H86.6533V20.72Z" fill="white"/>
<path d="M89.4384 25.9797C89.4013 25.5913 89.4458 25.1994 89.5688 24.8291C89.6919 24.4589 89.8909 24.1185 90.1531 23.8298C90.4153 23.541 90.7349 23.3103 91.0914 23.1525C91.4479 22.9946 91.8334 22.9131 92.2233 22.9131C92.6131 22.9131 92.9986 22.9946 93.3551 23.1525C93.7116 23.3103 94.0312 23.541 94.2934 23.8298C94.5556 24.1185 94.7546 24.4589 94.8777 24.8291C95.0007 25.1994 95.0452 25.5913 95.0081 25.9797C95.0458 26.3685 95.0019 26.7609 94.8792 27.1317C94.7564 27.5025 94.5575 27.8435 94.2952 28.1328C94.033 28.4221 93.7131 28.6533 93.3563 28.8115C92.9995 28.9697 92.6135 29.0514 92.2233 29.0514C91.833 29.0514 91.447 28.9697 91.0902 28.8115C90.7333 28.6533 90.4135 28.4221 90.1513 28.1328C89.889 27.8435 89.6901 27.5025 89.5673 27.1317C89.4446 26.7609 89.4007 26.3685 89.4384 25.9797ZM93.8088 25.9797C93.8088 24.6986 93.2339 23.9494 92.2248 23.9494C91.212 23.9494 90.6422 24.6986 90.6422 25.9797C90.6422 27.271 91.212 28.0144 92.2248 28.0144C93.2339 28.0144 93.8089 27.2659 93.8089 25.9797H93.8088Z" fill="white"/>
<path d="M96.2349 27.2659C96.2349 26.2021 97.0262 25.5888 98.4309 25.5016L100.03 25.4093V24.8992C100.03 24.275 99.618 23.9225 98.8215 23.9225C98.171 23.9225 97.7203 24.1615 97.5909 24.5794H96.4628C96.5819 23.5643 97.5359 22.9131 98.8753 22.9131C100.356 22.9131 101.19 23.6508 101.19 24.8992V28.9373H100.069V28.1067H99.9765C99.7894 28.4047 99.5266 28.6475 99.215 28.8106C98.9035 28.9736 98.5542 29.0509 98.203 29.0347C97.9552 29.0605 97.7046 29.034 97.4676 28.957C97.2306 28.8799 97.0123 28.754 96.8269 28.5874C96.6415 28.4207 96.493 28.217 96.391 27.9894C96.289 27.7618 96.2358 27.5154 96.2349 27.2659ZM100.03 26.7609V26.2668L98.5885 26.3591C97.7753 26.4135 97.4065 26.6904 97.4065 27.2114C97.4065 27.7433 97.8675 28.0529 98.5014 28.0529C98.6872 28.0717 98.8748 28.0529 99.0531 27.9977C99.2315 27.9424 99.3969 27.8519 99.5395 27.7313C99.6822 27.6108 99.7991 27.4627 99.8834 27.296C99.9678 27.1293 100.018 26.9473 100.03 26.7609Z" fill="white"/>
<path d="M102.722 25.9797C102.722 24.1122 103.681 22.9291 105.173 22.9291C105.542 22.9121 105.908 23.0006 106.228 23.1842C106.549 23.3678 106.811 23.639 106.983 23.966H107.07V20.72H108.236V28.9373H107.119V28.0035H107.027C106.841 28.3283 106.57 28.5961 106.243 28.7779C105.917 28.9597 105.546 29.0485 105.173 29.0347C103.671 29.0347 102.722 27.8517 102.722 25.9797ZM103.925 25.9797C103.925 27.2332 104.516 27.9875 105.503 27.9875C106.485 27.9875 107.092 27.2223 107.092 25.9848C107.092 24.7531 106.479 23.977 105.503 23.977C104.522 23.977 103.925 24.7364 103.925 25.9797H103.925Z" fill="white"/>
<path d="M113.057 25.9797C113.02 25.5913 113.064 25.1994 113.187 24.8292C113.31 24.459 113.509 24.1186 113.772 23.8299C114.034 23.5411 114.353 23.3105 114.71 23.1526C115.066 22.9947 115.452 22.9132 115.842 22.9132C116.231 22.9132 116.617 22.9947 116.973 23.1526C117.33 23.3105 117.649 23.5411 117.912 23.8299C118.174 24.1186 118.373 24.459 118.496 24.8292C118.619 25.1994 118.663 25.5913 118.626 25.9797C118.664 26.3685 118.62 26.7609 118.497 27.1317C118.375 27.5025 118.176 27.8435 117.914 28.1328C117.651 28.4221 117.331 28.6533 116.975 28.8115C116.618 28.9697 116.232 29.0514 115.842 29.0514C115.451 29.0514 115.065 28.9697 114.709 28.8115C114.352 28.6533 114.032 28.4221 113.77 28.1328C113.507 27.8435 113.309 27.5025 113.186 27.1317C113.063 26.7609 113.019 26.3685 113.057 25.9797ZM117.428 25.9797C117.428 24.6986 116.853 23.9494 115.844 23.9494C114.831 23.9494 114.261 24.6986 114.261 25.9797C114.261 27.2711 114.831 28.0145 115.844 28.0145C116.853 28.0144 117.428 27.2659 117.428 25.9797Z" fill="white"/>
<path d="M120.189 23.0272H121.311V23.9661H121.398C121.546 23.6289 121.795 23.3462 122.111 23.1574C122.427 22.9687 122.794 22.8833 123.16 22.9131C123.448 22.8915 123.736 22.9348 124.004 23.04C124.273 23.1451 124.514 23.3093 124.71 23.5204C124.906 23.7315 125.053 23.9841 125.138 24.2595C125.224 24.5349 125.246 24.826 125.204 25.1113V28.9372H124.039V25.4042C124.039 24.4544 123.626 23.9821 122.765 23.9821C122.57 23.973 122.375 24.0062 122.194 24.0795C122.013 24.1528 121.85 24.2644 121.716 24.4066C121.582 24.5489 121.48 24.7184 121.418 24.9037C121.356 25.0889 121.334 25.2854 121.355 25.4798V28.9373H120.189V23.0272Z" fill="white"/>
<path d="M131.788 21.5558V23.0541H133.068V24.0366H131.788V27.0756C131.788 27.6946 132.043 27.9657 132.623 27.9657C132.772 27.9653 132.92 27.9563 133.068 27.9388V28.9104C132.858 28.9478 132.646 28.9678 132.434 28.97C131.138 28.97 130.622 28.5137 130.622 27.3742V24.0365H129.685V23.0541H130.622V21.5558H131.788Z" fill="white"/>
<path d="M134.659 20.72H135.814V23.9769H135.906C136.061 23.6366 136.317 23.3523 136.639 23.1629C136.962 22.9734 137.334 22.888 137.707 22.9182C137.993 22.9027 138.278 22.9504 138.544 23.0581C138.809 23.1658 139.047 23.3307 139.241 23.5412C139.435 23.7516 139.581 24.0024 139.667 24.2756C139.753 24.5487 139.778 24.8376 139.74 25.1215V28.9373H138.574V25.4093C138.574 24.4653 138.135 23.9872 137.311 23.9872C137.111 23.9707 136.909 23.9983 136.721 24.0679C136.532 24.1376 136.361 24.2476 136.22 24.3903C136.078 24.533 135.969 24.705 135.901 24.8942C135.833 25.0834 135.807 25.2852 135.825 25.4855V28.9373H134.659L134.659 20.72Z" fill="white"/>
<path d="M146.535 27.3415C146.376 27.8817 146.033 28.3489 145.566 28.6615C145.098 28.974 144.535 29.112 143.976 29.0514C143.587 29.0616 143.201 28.9871 142.843 28.8328C142.486 28.6785 142.167 28.4483 141.907 28.1581C141.648 27.8678 141.454 27.5245 141.341 27.152C141.227 26.7795 141.196 26.3867 141.249 26.0008C141.197 25.6138 141.229 25.2201 141.342 24.8465C141.456 24.4729 141.648 24.128 141.906 23.8352C142.164 23.5424 142.482 23.3086 142.839 23.1495C143.195 22.9904 143.581 22.9098 143.971 22.9131C145.614 22.9131 146.605 24.0366 146.605 25.8925V26.2995H142.436V26.3648C142.418 26.5817 142.445 26.8 142.516 27.0058C142.587 27.2115 142.7 27.4001 142.848 27.5595C142.996 27.7189 143.176 27.8456 143.376 27.9315C143.575 28.0173 143.791 28.0604 144.008 28.058C144.287 28.0915 144.569 28.0412 144.82 27.9136C145.07 27.7861 145.276 27.5869 145.413 27.3415L146.535 27.3415ZM142.436 25.4369H145.418C145.433 25.2385 145.406 25.0393 145.339 24.8519C145.272 24.6646 145.167 24.4934 145.03 24.3492C144.893 24.205 144.728 24.0911 144.544 24.0147C144.361 23.9384 144.163 23.9013 143.965 23.9058C143.763 23.9033 143.563 23.9412 143.377 24.0172C143.19 24.0933 143.02 24.206 142.878 24.3486C142.735 24.4913 142.623 24.6611 142.547 24.848C142.471 25.0349 142.433 25.2351 142.436 25.4369H142.436Z" fill="white"/>
</svg>
